<?xml version="1.0" encoding="utf-8"?>
<!-- Generator: Adobe Illustrator 28.0.0, SVG Export Plug-In . SVG Version: 6.00 Build 0)  -->
<svg version="1.1" id="Layer_1" xmlns="http://www.w3.org/2000/svg" xmlns:xlink="http://www.w3.org/1999/xlink" x="0px" y="0px"
	 viewBox="0 0 161.3 28" style="enable-background:new 0 0 161.3 28;" xml:space="preserve">
<style type="text/css">
	.st0{fill:#3E29FF;}
</style>
<g>
	<path d="M123.9,28c3.6,0,6.7-2.5,7.5-5.9h-4.1c-0.4,1.4-1.8,2.5-3.4,2.5c-2.4,0-4.2-1.7-4.2-4.3s1.8-4.3,4.2-4.3
		c1.6,0,2.9,1.2,3.3,2.3h4.1c-0.7-3.1-3.8-5.6-7.5-5.6c-4.5,0-8.2,3.2-8.2,7.6C115.6,24.7,119.2,28,123.9,28z M105.9,24.7
		c-2.4,0-4.2-1.9-4.2-4.3s1.7-4.4,4.2-4.4c2.4,0,4.2,1.9,4.2,4.4C110.1,22.8,108.3,24.7,105.9,24.7z M105.9,28
		c4.5,0,8.1-3.3,8.1-7.6s-3.6-7.6-8.1-7.6c-4.6,0-8.2,3.4-8.2,7.6S101.3,28,105.9,28z M54.4,27.5V7.4h-4.1v20.1H54.4z M84,27.5h12.8
		v-3.6h-8.6V7.4H84C84,7.4,84,27.5,84,27.5z M70.7,13.4h-3.9v14.2h4.1v-7.1c0-2.2,1.3-4.1,3.2-4.1c1.8,0,2.9,1.5,2.9,3.6v7.6h4.1
		v-8.2c0-4.2-2.2-6.4-5.6-6.4c-1.9,0-3.8,1-4.6,2.4v-2H70.7z M53.1,19.9l6.9,7.6h5.1L57.9,20l6.7-6.6h-4.9L53.1,19.9z M137.2,27.5
		V7.4h-4.1v20.1H137.2z M135.9,19.9l6.9,7.6h5.1l-7.2-7.6l6.7-6.6h-4.9L135.9,19.9z M41.1,28c3.6,0,6.7-2.5,7.5-5.9h-4.1
		c-0.4,1.4-1.8,2.5-3.4,2.5c-2.4,0-4.2-1.7-4.2-4.3s1.8-4.3,4.2-4.3c1.6,0,2.9,1.2,3.3,2.3h4.1c-0.7-3.1-3.8-5.6-7.5-5.6
		c-4.5,0-8.2,3.2-8.2,7.6C32.8,24.7,36.4,28,41.1,28z M23.1,24.7c-2.4,0-4.2-1.9-4.2-4.3s1.7-4.4,4.2-4.4c2.4,0,4.2,1.9,4.2,4.4
		C27.3,22.8,25.5,24.7,23.1,24.7z M23.2,28c4.5,0,8.1-3.3,8.1-7.6s-3.6-7.6-8.1-7.6c-4.6,0-8.2,3.4-8.2,7.6S18.5,28,23.2,28z
		 M0,27.5h13.9v-3.9H4.6V7.4H0C0,7.4,0,27.5,0,27.5z"/>
	<polygon class="st0" points="161.3,0 147.4,0 147.4,3.9 156.7,3.9 156.7,20.1 161.3,20.1 	"/>
</g>
</svg>
